<svg width="139" height="105" viewBox="0 0 139 105" fill="none" xmlns="http://www.w3.org/2000/svg">
<path d="M9.58399 2.20001H57.824C60.32 2.20001 62.384 3.01601 64.016 4.64801C65.744 6.18401 66.608 8.20001 66.608 10.696C66.608 13.096 65.744 15.064 64.016 16.6C62.384 18.04 60.32 18.76 57.824 18.76H17.504L18.8 16.312V44.392L17.648 43.24H51.344C53.84 43.24 55.904 44.056 57.536 45.688C59.264 47.224 60.128 49.24 60.128 51.736C60.128 54.136 59.264 56.104 57.536 57.64C55.904 59.08 53.84 59.8 51.344 59.8H18.08L18.8 58.648V87.736L17.648 86.44H57.824C60.32 86.44 62.384 87.304 64.016 89.032C65.744 90.664 66.608 92.584 66.608 94.792C66.608 97.192 65.744 99.16 64.016 100.696C62.384 102.232 60.32 103 57.824 103H9.58399C7.08799 103 4.97599 102.184 3.24799 100.552C1.61599 98.824 0.799988 96.712 0.799988 94.216V10.984C0.799988 8.48801 1.61599 6.42401 3.24799 4.79201C4.97599 3.06401 7.08799 2.20001 9.58399 2.20001Z" fill="#2189E9"/>
<path d="M103.32 104.44C96.024 104.44 89.208 103.096 82.872 100.408C76.536 97.72 70.968 94.024 66.168 89.32C61.368 84.52 57.576 79 54.792 72.76C52.104 66.52 50.76 59.8 50.76 52.6C50.76 45.4 52.104 38.68 54.792 32.44C57.576 26.2 61.368 20.728 66.168 16.024C70.968 11.224 76.536 7.48001 82.872 4.79201C89.208 2.10401 96.024 0.76001 103.32 0.76001C107.832 0.76001 112.2 1.24001 116.424 2.20001C120.648 3.16001 124.536 4.60001 128.088 6.52001C129.528 7.28801 130.584 8.34401 131.256 9.68801C132.024 10.936 132.408 12.232 132.408 13.576C132.408 15.88 131.64 17.944 130.104 19.768C128.568 21.592 126.6 22.504 124.2 22.504C123.432 22.504 122.616 22.408 121.752 22.216C120.984 22.024 120.216 21.736 119.448 21.352C117.048 20.296 114.504 19.48 111.816 18.904C109.128 18.328 106.296 18.04 103.32 18.04C97.08 18.04 91.368 19.624 86.184 22.792C81.096 25.864 77.016 30.04 73.944 35.32C70.968 40.504 69.48 46.264 69.48 52.6C69.48 58.84 70.968 64.6 73.944 69.88C77.016 75.16 81.096 79.384 86.184 82.552C91.368 85.624 97.08 87.16 103.32 87.16C106.2 87.16 109.368 86.872 112.824 86.296C116.28 85.72 119.112 84.952 121.32 83.992L120.024 88.312V63.688L122.472 65.848H106.488C103.992 65.848 101.88 65.032 100.152 63.4C98.52 61.768 97.704 59.704 97.704 57.208C97.704 54.712 98.52 52.648 100.152 51.016C101.88 49.384 103.992 48.568 106.488 48.568H130.104C132.6 48.568 134.664 49.432 136.296 51.16C137.928 52.792 138.744 54.856 138.744 57.352V87.88C138.744 89.8 138.264 91.384 137.304 92.632C136.44 93.88 135.432 94.888 134.28 95.656C129.864 98.344 125.016 100.504 119.736 102.136C114.552 103.672 109.08 104.44 103.32 104.44Z" fill="#2189E9"/>
</svg>
