<?xml version="1.0" standalone="no"?>
<!DOCTYPE svg PUBLIC "-//W3C//DTD SVG 20010904//EN"
 "http://www.w3.org/TR/2001/REC-SVG-20010904/DTD/svg10.dtd">
<svg version="1.0" xmlns="http://www.w3.org/2000/svg"
 width="1112.000000pt" height="1112.000000pt" viewBox="0 0 1112.000000 1112.000000"
 preserveAspectRatio="xMidYMid meet">
<metadata>
Created by potrace 1.14, written by Peter Selinger 2001-2017
</metadata>
<g transform="translate(0.000000,1112.000000) scale(0.100000,-0.100000)"
fill="#000000" stroke="none">
<path d="M7997 9694 c-2 -2 -41 -6 -87 -9 -47 -3 -103 -7 -125 -10 -22 -3 -58
-8 -80 -10 -66 -8 -118 -16 -195 -30 -19 -3 -44 -8 -55 -10 -11 -2 -31 -6 -45
-9 -24 -6 -52 -11 -115 -23 -16 -3 -49 -11 -73 -19 -23 -8 -47 -12 -52 -9 -6
3 -10 2 -10 -3 0 -5 -6 -9 -12 -9 -14 0 -122 -30 -148 -40 -8 -4 -17 -7 -20
-8 -82 -25 -162 -53 -285 -100 -11 -5 -23 -7 -27 -7 -5 1 -8 -3 -8 -8 0 -6 -9
-10 -20 -10 -11 0 -20 -4 -20 -8 0 -5 -6 -9 -12 -9 -26 0 -391 -179 -396 -194
-2 -5 -12 -9 -23 -9 -10 0 -19 -4 -19 -8 0 -5 -12 -14 -26 -21 -23 -10 -226
-135 -249 -153 -53 -42 -107 -78 -115 -78 -6 0 -10 -3 -10 -7 0 -5 -16 -19
-35 -32 -19 -13 -43 -31 -54 -40 -10 -9 -34 -28 -52 -43 -19 -14 -44 -35 -55
-45 -12 -10 -46 -38 -75 -63 -70 -58 -393 -381 -444 -445 -22 -27 -48 -57 -57
-67 -10 -10 -18 -22 -18 -27 0 -5 -4 -11 -9 -13 -11 -4 -133 -163 -186 -243
-22 -33 -43 -62 -46 -65 -6 -5 -55 -79 -75 -115 -6 -11 -40 -69 -76 -130 -187
-320 -336 -693 -415 -1035 -8 -36 -17 -74 -19 -85 -3 -11 -10 -48 -16 -81
l-11 -61 -112 0 c-62 0 -118 -3 -123 -7 -6 -3 -13 -2 -16 2 -5 8 -29 9 -61 2
-5 -1 -14 -1 -20 0 -25 5 -215 1 -224 -4 -5 -4 -12 -2 -15 2 -5 8 -29 9 -61 2
-5 -1 -14 -1 -20 0 -25 5 -215 1 -224 -4 -5 -4 -12 -2 -15 2 -5 8 -29 9 -61 2
-5 -1 -14 -1 -20 0 -25 5 -215 1 -224 -4 -5 -4 -12 -2 -15 2 -5 8 -29 9 -61 2
-5 -1 -14 -1 -20 0 -25 5 -215 1 -224 -4 -5 -4 -12 -2 -15 2 -5 8 -29 9 -61 2
-5 -1 -14 -1 -20 0 -25 5 -215 1 -224 -4 -5 -4 -12 -2 -15 2 -5 8 -29 9 -61 2
-5 -1 -14 -1 -20 0 -25 5 -215 1 -224 -4 -5 -4 -12 -2 -15 2 -5 8 -29 9 -61 2
-5 -1 -14 -1 -20 0 -25 5 -215 1 -224 -4 -5 -4 -12 -2 -15 2 -5 8 -29 9 -61 2
-5 -1 -14 -1 -20 0 -5 1 -19 3 -30 4 -20 1 -20 8 -20 979 l-1 977 1601 1 c880
1 1613 3 1628 5 48 5 141 26 167 37 14 6 27 11 30 12 91 31 213 124 281 215
53 71 119 236 104 260 -3 5 -2 11 3 14 12 7 13 138 1 211 -14 94 -47 183 -92
249 -44 65 -165 188 -207 210 -14 7 -41 22 -60 33 -19 11 -53 25 -75 32 -22 7
-47 15 -55 18 -21 9 -19 8 -80 18 -70 11 -4006 13 -4080 2 -30 -4 -66 -10 -80
-13 -14 -3 -37 -8 -53 -11 -15 -3 -27 -9 -27 -13 0 -4 -13 -10 -28 -13 -44 -9
-173 -100 -234 -165 -57 -62 -128 -169 -128 -194 0 -8 -3 -18 -7 -22 -5 -4 -8
-11 -9 -14 0 -4 -4 -15 -7 -24 -14 -37 -18 -52 -24 -102 -9 -67 -9 -6836 0
-6901 6 -48 21 -113 34 -145 3 -8 5 -18 5 -22 -1 -5 2 -8 8 -8 6 0 9 -3 8 -8
-4 -11 43 -99 64 -122 10 -10 18 -22 18 -25 0 -12 59 -70 115 -112 106 -80
237 -130 365 -138 33 -2 64 -7 70 -10 5 -3 10 -2 10 4 0 6 11 7 28 2 15 -4 38
-5 52 -1 14 4 33 3 42 -2 10 -5 19 -4 23 2 4 7 13 7 26 0 10 -6 19 -7 19 -3 0
4 14 8 30 8 17 0 30 -3 30 -7 0 -4 11 -3 25 2 16 6 25 6 25 0 0 -6 9 -6 24 0
13 5 26 6 29 4 8 -8 176 -8 183 -1 4 3 15 2 25 -4 11 -5 19 -6 19 -2 0 10 41
10 57 0 7 -4 14 -4 17 1 5 9 47 9 63 -1 7 -4 14 -3 18 2 3 6 15 7 28 2 12 -5
31 -5 42 -1 11 4 25 3 32 -2 7 -5 14 -5 18 2 4 7 12 7 26 0 10 -6 19 -7 19 -3
0 10 41 10 57 0 7 -4 14 -4 17 1 5 9 47 9 63 -1 7 -4 14 -3 18 2 3 7 15 7 29
1 13 -5 26 -7 29 -4 9 9 62 11 84 2 14 -4 23 -4 23 2 0 6 9 6 25 0 14 -5 25
-6 25 -2 0 9 65 6 80 -3 6 -3 10 -2 10 4 0 6 11 7 28 2 15 -4 39 -4 54 0 16 4
28 3 28 -2 0 -5 10 -5 24 1 15 5 27 5 34 -2 6 -6 12 -6 16 1 5 7 15 7 31 1 15
-6 25 -6 25 0 0 5 12 5 27 1 16 -4 40 -4 55 0 16 4 28 3 28 -2 0 -5 10 -5 24
1 15 5 27 5 34 -2 6 -6 12 -6 16 1 5 7 15 7 31 1 15 -6 25 -6 25 0 0 5 12 5
28 1 15 -4 39 -4 54 0 16 4 28 3 28 -2 0 -5 10 -5 24 1 15 5 27 5 34 -2 6 -6
12 -6 16 1 5 7 15 7 31 1 15 -6 25 -6 25 0 0 5 12 5 28 1 15 -4 39 -4 55 0 15
4 27 3 27 -2 0 -5 10 -5 24 1 15 5 27 5 34 -2 6 -6 12 -6 16 1 5 7 15 7 31 1
17 -6 25 -6 25 1 0 6 4 7 10 4 14 -8 118 -10 126 -2 4 3 15 2 25 -4 11 -5 19
-6 19 -2 0 10 41 10 57 0 7 -4 14 -4 17 1 5 9 47 9 63 -1 7 -4 14 -3 18 2 3 6
15 7 28 2 12 -5 31 -5 42 -1 11 4 25 3 32 -2 7 -5 14 -5 18 2 4 7 12 7 26 0
10 -6 19 -7 19 -3 0 10 41 10 57 0 7 -4 14 -4 17 1 5 9 47 9 63 -1 7 -4 14 -3
18 2 3 7 15 7 29 1 13 -5 26 -6 29 -4 8 9 81 9 94 1 6 -4 14 -3 18 3 4 7 12 7
25 0 10 -6 21 -7 23 -3 6 9 59 9 73 0 6 -3 16 -2 24 3 8 5 21 5 31 -1 11 -6
20 -5 24 1 3 5 15 6 28 1 12 -5 34 -5 49 0 16 4 28 4 28 -1 0 -6 10 -6 25 0
15 6 26 6 30 0 4 -6 13 -7 23 -1 11 6 24 6 34 0 10 -6 19 -6 23 0 3 7 15 7 30
1 15 -6 27 -6 30 0 3 6 15 6 30 0 16 -6 25 -6 25 0 0 5 6 7 14 4 21 -8 106
-10 106 -2 0 4 13 3 29 -2 16 -4 31 -6 34 -4 2 3 31 7 63 10 32 2 82 11 109
18 28 8 56 15 64 17 7 2 44 20 82 39 79 41 156 102 217 174 45 53 110 175 118
223 3 16 9 46 14 68 14 62 5 211 -16 290 -11 39 -73 160 -94 183 -11 12 -19
22 -16 22 10 0 -121 125 -169 161 -74 55 -168 94 -285 116 -25 5 -762 8 -1638
8 -1408 0 -1593 2 -1596 15 -2 8 -3 488 -2 1065 l1 1050 1297 0 1297 0 7 -50
c4 -27 8 -57 9 -65 5 -38 20 -116 41 -210 3 -14 7 -34 9 -45 20 -113 117 -416
192 -599 48 -119 165 -358 219 -447 19 -31 34 -59 34 -62 0 -3 18 -33 40 -66
22 -33 40 -64 40 -70 0 -5 3 -11 8 -13 4 -1 34 -43 67 -93 64 -96 210 -293
229 -310 6 -5 31 -35 56 -65 114 -140 330 -356 475 -475 26 -22 53 -45 59 -50
69 -65 516 -375 541 -375 3 0 38 -20 80 -45 41 -24 75 -41 75 -38 0 3 8 -1 18
-9 34 -29 373 -183 502 -228 19 -7 49 -19 67 -26 17 -8 35 -14 41 -14 5 0 45
-12 88 -26 44 -15 85 -27 92 -27 6 0 12 -4 12 -9 0 -5 4 -7 9 -3 5 3 29 -1 53
-9 24 -8 57 -17 73 -20 17 -2 30 -5 30 -6 0 -1 7 -3 15 -5 8 -1 60 -12 115
-23 55 -12 118 -24 140 -27 23 -3 52 -8 65 -10 39 -8 113 -17 250 -31 231 -23
638 -22 865 1 22 2 65 7 95 9 30 3 66 8 80 10 14 2 46 7 71 10 175 24 539 104
619 136 14 6 34 12 45 14 39 8 340 117 394 142 18 9 39 17 45 18 6 1 32 12 59
24 26 12 68 32 95 43 83 37 235 112 295 146 31 17 57 29 57 26 0 -4 7 2 15 13
8 10 15 15 15 11 0 -5 13 1 29 12 16 12 32 21 35 21 4 0 12 5 19 10 7 6 39 28
72 49 51 34 114 92 185 170 58 65 116 176 142 271 14 53 25 399 14 465 -2 11
0 27 5 36 5 9 6 19 2 22 -5 6 -7 128 -3 152 1 6 2 15 1 20 -1 6 -2 39 -1 75 1
112 -1 184 -5 188 -2 2 0 14 5 27 5 13 6 26 3 29 -3 3 -5 38 -4 78 3 92 2 147
-3 173 -2 11 1 28 5 37 6 10 5 19 -1 23 -6 4 -8 10 -5 15 3 5 5 46 5 92 -1 46
-1 92 -1 103 1 91 0 194 -3 210 -2 11 0 27 5 36 5 9 6 19 2 22 -5 6 -7 128 -3
152 1 6 2 15 1 20 -1 6 -2 39 -1 75 1 112 -1 184 -5 188 -2 2 0 14 5 27 5 13
6 26 3 29 -3 3 -5 38 -4 78 3 92 2 147 -3 173 -2 11 0 27 5 36 5 9 6 19 3 22
-3 3 -7 42 -9 86 -2 44 -7 86 -11 93 -5 7 -10 23 -12 35 -1 13 -11 43 -22 68
-11 25 -19 46 -18 48 6 7 -91 134 -140 184 -86 85 -126 111 -233 154 -54 21
-70 24 -169 37 -72 9 -2055 7 -2100 -3 -19 -4 -39 -8 -45 -9 -57 -12 -115 -31
-115 -38 0 -4 -8 -8 -19 -8 -10 0 -35 -11 -55 -25 -20 -14 -39 -25 -42 -25
-26 0 -178 -164 -212 -227 -150 -284 -100 -645 118 -851 61 -58 186 -135 239
-147 9 -2 41 -12 71 -21 49 -15 126 -17 659 -20 372 -2 606 -7 610 -12 8 -13
5 -157 -3 -171 -4 -6 -4 -11 1 -11 4 0 8 -52 8 -115 0 -63 -4 -115 -8 -115 -5
0 -5 -5 -1 -11 9 -16 11 -229 1 -229 -4 0 -4 -8 0 -17 10 -22 9 -585 -1 -601
-4 -7 -4 -12 1 -12 4 0 8 -43 7 -95 0 -83 -3 -97 -20 -109 -17 -11 -146 -52
-192 -61 -9 -2 -17 -4 -17 -5 0 -1 -7 -3 -15 -5 -8 -2 -58 -13 -110 -25 -52
-12 -106 -23 -120 -25 -14 -3 -36 -7 -50 -10 -14 -3 -44 -8 -66 -11 -23 -2
-53 -7 -65 -10 -13 -3 -46 -7 -74 -10 -27 -2 -56 -7 -63 -9 -7 -3 -46 -8 -85
-11 -109 -9 -117 -10 -123 -17 -4 -3 -14 -2 -24 3 -10 5 -20 6 -24 3 -12 -12
-378 -18 -496 -8 -149 12 -177 15 -200 20 -14 3 -41 8 -60 11 -19 2 -48 8 -65
12 -16 3 -34 7 -40 7 -9 1 -121 26 -135 30 -3 1 -12 4 -20 8 -8 3 -42 13 -75
22 -132 35 -494 191 -503 216 -2 5 -9 9 -16 9 -6 0 -63 34 -126 76 -237 157
-451 350 -626 564 -16 19 -31 37 -34 40 -14 13 -141 193 -189 269 -65 102
-186 336 -206 401 -3 9 -17 44 -25 65 -5 11 -12 29 -16 40 -8 21 -8 21 -16 45
-3 8 -10 31 -17 50 -7 19 -14 42 -16 50 -1 8 -11 42 -20 75 -15 55 -22 85 -39
170 -4 17 -9 41 -12 55 -3 14 -8 39 -10 55 -2 17 -6 48 -8 70 -20 151 -26 249
-25 410 0 148 10 312 23 380 2 11 7 43 10 70 8 59 33 183 48 240 6 22 11 45
13 50 1 6 4 17 7 25 3 8 11 35 18 59 6 25 17 56 23 70 5 14 12 34 14 44 1 10
12 38 23 62 11 24 20 51 20 59 0 9 4 16 8 16 4 0 14 20 21 45 7 24 19 49 27
56 8 6 14 17 14 24 0 16 70 148 83 156 5 3 8 10 8 15 -1 11 140 230 185 287
18 23 42 53 53 67 111 140 284 317 397 405 21 17 47 38 58 48 12 10 53 40 91
67 39 27 75 53 80 58 6 4 60 37 120 74 182 108 423 218 570 258 17 5 55 16 85
25 30 9 66 18 80 20 35 6 69 13 88 19 9 3 31 7 47 10 17 2 49 7 73 11 251 40
666 39 892 -2 19 -3 44 -7 55 -9 20 -2 82 -12 120 -19 11 -2 31 -7 45 -11 14
-3 35 -7 48 -8 12 0 22 -4 22 -7 0 -3 6 -6 13 -6 19 -1 84 -19 192 -52 55 -18
105 -33 110 -34 6 -2 20 -9 33 -15 12 -7 22 -10 22 -7 0 3 19 -4 43 -16 23
-12 43 -21 44 -21 3 1 45 -16 128 -53 82 -35 145 -51 239 -60 38 -3 72 -6 75
-7 3 0 8 1 11 2 3 1 30 3 61 4 61 3 194 41 220 63 8 7 20 13 25 13 26 1 180
151 221 216 57 92 104 213 118 309 10 64 7 179 -6 232 -23 99 -162 347 -182
326 -4 -3 -7 -1 -7 5 0 36 -265 183 -495 275 -139 55 -360 128 -465 153 -8 2
-42 10 -76 18 -71 17 -111 26 -140 31 -11 1 -47 9 -80 16 -32 6 -70 13 -84 15
-14 1 -34 4 -46 7 -12 3 -45 8 -75 12 -30 3 -70 8 -89 10 -59 7 -152 17 -210
22 -64 5 -629 11 -633 7z"/>
</g>
</svg>
